<?xml version="1.0" encoding="UTF-8" standalone="no"?>
<!DOCTYPE svg PUBLIC "-//W3C//DTD SVG 1.1//EN" "http://www.w3.org/Graphics/SVG/1.1/DTD/svg11.dtd">
<svg width="100%" height="100%" viewBox="0 0 4053 1061" version="1.1" xmlns="http://www.w3.org/2000/svg" xmlns:xlink="http://www.w3.org/1999/xlink" xml:space="preserve" xmlns:serif="http://www.serif.com/" style="fill-rule:evenodd;clip-rule:evenodd;stroke-linejoin:round;stroke-miterlimit:2;">
    <g transform="matrix(76.5426,0,0,76.5426,-8470.83,-10176.6)">
        <path d="M117.594,132.954C121.416,132.954 124.519,136.057 124.519,139.879C124.519,143.702 121.416,146.805 117.594,146.805L112.698,146.805C112.689,146.805 112.681,146.797 112.681,146.788L112.681,145.497L117.594,145.497C120.688,145.497 123.201,142.985 123.201,139.89C123.201,136.795 120.688,134.283 117.594,134.283L114.01,134.283L114.01,142.796L112.681,142.796L112.681,132.965C112.681,132.962 112.682,132.959 112.684,132.957C112.686,132.955 112.689,132.954 112.692,132.954L117.594,132.954ZM117.594,134.958C120.31,134.958 122.515,137.163 122.515,139.879C122.515,142.595 120.31,144.8 117.594,144.8L110.668,144.8L110.668,134.958L111.997,134.958L111.997,143.472L117.594,143.472L117.594,143.47C119.575,143.47 121.184,141.861 121.184,139.879C121.184,137.898 119.575,136.289 117.594,136.289L117.594,136.287L114.685,136.287L114.685,134.958L117.594,134.958ZM130.99,142.672L129.766,142.672C129.696,142.672 129.673,142.65 129.673,142.583L129.673,141.222C129.673,141.155 129.696,141.134 129.766,141.134L130.99,141.134C131.061,141.134 131.099,141.148 131.147,141.194L131.433,141.468C131.481,141.513 131.496,141.549 131.496,141.617L131.496,142.191C131.496,142.259 131.478,142.297 131.43,142.343L131.149,142.61C131.101,142.655 131.061,142.672 130.99,142.672ZM130.086,141.497L130.086,142.309L130.881,142.309L131.053,142.146L131.053,141.665L130.878,141.497L130.086,141.497ZM135.538,142.583L135.538,141.222C135.538,141.155 135.561,141.134 135.632,141.134L136.825,141.134C136.896,141.134 136.918,141.155 136.918,141.222L136.918,141.393C136.918,141.46 136.896,141.482 136.827,141.482L135.941,141.477L135.941,141.718L136.731,141.715C136.799,141.715 136.822,141.737 136.822,141.804L136.822,141.992C136.822,142.059 136.799,142.081 136.731,142.081L135.941,142.076L135.941,142.328L136.837,142.326C136.906,142.326 136.929,142.348 136.929,142.415L136.929,142.583C136.929,142.65 136.906,142.672 136.835,142.672L135.632,142.672C135.561,142.672 135.538,142.65 135.538,142.583ZM142.125,141.903L142.12,141.215C142.12,141.15 142.143,141.129 142.214,141.129L142.444,141.129C142.515,141.129 142.538,141.15 142.538,141.215L142.536,141.951C142.536,142.016 142.52,142.052 142.472,142.098L141.796,142.747C141.748,142.792 141.718,142.792 141.669,142.747L140.988,142.098C140.94,142.052 140.925,142.016 140.925,141.951L140.922,141.215C140.922,141.15 140.945,141.129 141.016,141.129L141.247,141.129C141.317,141.129 141.34,141.15 141.34,141.215L141.338,141.9L141.733,142.299L142.125,141.903ZM146.59,142.588L146.59,141.218C146.59,141.15 146.613,141.129 146.684,141.129L146.909,141.129C146.98,141.129 147.003,141.15 147.003,141.218L147.003,142.588C147.003,142.655 146.98,142.677 146.909,142.677L146.684,142.677C146.613,142.677 146.59,142.655 146.59,142.588ZM152.613,141.182L152.77,141.328C152.818,141.374 152.818,141.403 152.77,141.448L152.59,141.622C152.542,141.667 152.511,141.665 152.461,141.614L152.332,141.484L151.663,141.484L151.473,141.665L151.473,142.141L151.663,142.321L152.337,142.321L152.466,142.194C152.514,142.146 152.544,142.146 152.592,142.191L152.767,142.36C152.815,142.405 152.813,142.434 152.762,142.482L152.61,142.624C152.562,142.67 152.524,142.684 152.453,142.684L151.564,142.684C151.493,142.684 151.453,142.667 151.405,142.622L151.111,142.343C151.063,142.297 151.045,142.259 151.045,142.191L151.045,141.619C151.045,141.552 151.06,141.516 151.108,141.47L151.407,141.182C151.455,141.136 151.493,141.121 151.564,141.121L152.456,141.121C152.527,141.121 152.565,141.136 152.613,141.182ZM156.809,142.583L156.809,141.222C156.809,141.155 156.832,141.134 156.903,141.134L158.096,141.134C158.167,141.134 158.189,141.155 158.189,141.222L158.189,141.393C158.189,141.46 158.167,141.482 158.098,141.482L157.212,141.477L157.212,141.718L158.002,141.715C158.07,141.715 158.093,141.737 158.093,141.804L158.093,141.992C158.093,142.059 158.07,142.081 158.002,142.081L157.212,142.076L157.212,142.328L158.108,142.326C158.177,142.326 158.199,142.348 158.199,142.415L158.199,142.583C158.199,142.65 158.177,142.672 158.106,142.672L156.903,142.672C156.832,142.672 156.809,142.65 156.809,142.583ZM162.201,142.622L162.084,142.513C162.036,142.468 162.039,142.439 162.089,142.391L162.246,142.244C162.295,142.198 162.328,142.198 162.373,142.244L162.467,142.336L163.07,142.336L163.07,142.328L162.112,141.607C162.057,141.566 162.051,141.535 162.095,141.48L162.317,141.194C162.36,141.138 162.396,141.121 162.467,141.121L163.262,141.121C163.333,141.121 163.371,141.136 163.419,141.182L163.53,141.285C163.579,141.331 163.576,141.362 163.528,141.408L163.371,141.557C163.323,141.602 163.29,141.605 163.244,141.557L163.161,141.47L162.611,141.47L162.604,141.482L163.571,142.196C163.624,142.235 163.627,142.268 163.584,142.321L163.348,142.612C163.305,142.665 163.267,142.684 163.196,142.684L162.363,142.684C162.292,142.684 162.252,142.67 162.201,142.622ZM130.003,135.632L133.805,135.632C133.892,135.632 133.977,135.667 134.039,135.73L135.017,136.708C135.079,136.77 135.113,136.854 135.113,136.941L135.113,138.836C135.113,138.924 135.078,139.008 135.016,139.07L134.038,140.049C133.977,140.111 133.893,140.145 133.805,140.145L130.003,140.145C129.82,140.145 129.673,139.998 129.673,139.816L129.673,135.961C129.673,135.78 129.82,135.632 130.002,135.632L130.003,135.632ZM130.97,139.086L133.166,139.086L133.816,138.436L133.816,137.342L133.166,136.692L130.97,136.692L130.97,139.086ZM141.851,135.932L141.851,139.842C141.851,140.01 141.716,140.145 141.548,140.145L140.854,140.145C140.774,140.145 140.698,140.114 140.642,140.058C140.585,140.001 140.554,139.925 140.554,139.846L140.554,135.937C140.554,135.856 140.586,135.779 140.643,135.722C140.7,135.665 140.778,135.632 140.859,135.632L141.551,135.632C141.717,135.632 141.851,135.767 141.851,135.932ZM148.589,138.419L148.589,139.845C148.589,139.925 148.558,140.001 148.501,140.057C148.445,140.114 148.369,140.145 148.289,140.145L147.596,140.145C147.428,140.145 147.292,140.009 147.292,139.841L147.292,136.931C147.292,136.85 147.324,136.773 147.381,136.716L148.374,135.722C148.431,135.665 148.509,135.632 148.591,135.632L152.428,135.632C152.596,135.632 152.733,135.769 152.733,135.937L152.733,136.386C152.733,136.555 152.596,136.692 152.427,136.692L149.24,136.692L148.589,137.342L148.589,137.359L152.43,137.359C152.51,137.359 152.587,137.391 152.644,137.448C152.701,137.504 152.733,137.581 152.733,137.661L152.733,138.112C152.733,138.194 152.7,138.272 152.643,138.329C152.585,138.386 152.508,138.419 152.426,138.419L148.589,138.419ZM159.471,138.419L159.471,139.845C159.471,139.925 159.439,140.001 159.383,140.057C159.326,140.114 159.25,140.145 159.17,140.145L158.477,140.145C158.309,140.145 158.173,140.009 158.173,139.841L158.173,136.931C158.173,136.85 158.205,136.773 158.262,136.716L159.255,135.722C159.312,135.665 159.39,135.632 159.472,135.632L163.309,135.632C163.477,135.632 163.614,135.769 163.614,135.937L163.614,136.386C163.614,136.555 163.477,136.692 163.308,136.692L160.121,136.692L159.471,137.342L159.471,137.359L163.311,137.359C163.392,137.359 163.468,137.391 163.525,137.448C163.582,137.504 163.614,137.581 163.614,137.661L163.614,138.112C163.614,138.194 163.581,138.272 163.524,138.329C163.467,138.386 163.389,138.419 163.308,138.419L159.471,138.419ZM163.614,143.826L163.614,144.145L129.673,144.145L129.673,143.826L163.614,143.826Z" style="fill:rgb(89,89,89);"/>
    </g>
</svg>
